<svg xmlns="http://www.w3.org/2000/svg" width="500" height="238" viewBox="0 0 500 238" version="1.1"><path d="M 344.626 23.517 C 341.103 27.040, 344.554 32.831, 349.444 31.603 C 352.303 30.886, 353.905 26.667, 352.296 24.095 C 350.914 21.886, 346.584 21.559, 344.626 23.517 M 361.200 23.200 C 358.340 26.060, 360.521 31, 364.643 31 C 368.820 31, 370.931 25.065, 367.573 22.765 C 365.921 21.634, 362.535 21.865, 361.200 23.200 M 329.338 23.999 C 325.064 25.722, 325.539 32.084, 330.048 33.515 C 332.945 34.435, 337 31.529, 337 28.534 C 337 27.166, 336.033 25.436, 334.777 24.557 C 332.273 22.802, 332.298 22.805, 329.338 23.999 M 377.414 24.363 C 377.099 25.184, 376.990 26.900, 377.171 28.177 C 377.441 30.086, 378.104 30.500, 380.891 30.500 C 387.513 30.500, 387.742 23.842, 381.142 23.186 C 379.047 22.978, 377.794 23.373, 377.414 24.363 M 394.032 26.940 C 392.386 30.016, 394.391 33.209, 397.716 32.810 C 401.065 32.408, 402.893 29.644, 401.394 27.250 C 399.750 24.624, 395.370 24.440, 394.032 26.940 M 311.655 27.829 C 309.424 30.294, 309.570 33.301, 312.030 35.527 C 316.583 39.648, 323.648 32.583, 319.527 28.030 C 317.244 25.507, 313.835 25.420, 311.655 27.829 M 411.040 29.452 C 409.485 31.325, 410.028 33.989, 412.250 35.388 C 415.715 37.570, 419.617 32.653, 416.960 29.452 C 415.416 27.591, 412.584 27.591, 411.040 29.452 M 295 32 C 292.593 34.407, 292.499 35.840, 294.557 38.777 C 297.538 43.034, 305 40.568, 305 35.326 C 305 32.757, 301.983 30, 299.171 30 C 297.977 30, 296.100 30.900, 295 32 M 426.930 34.584 C 425.176 36.697, 426.926 39.500, 430 39.500 C 433.074 39.500, 434.824 36.697, 433.070 34.584 C 432.347 33.713, 430.965 33, 430 33 C 429.035 33, 427.653 33.713, 426.930 34.584 M 279 37 C 275.192 40.808, 277.445 46.333, 282.805 46.333 C 286.991 46.333, 289 44.413, 289 40.413 C 289 35.110, 282.954 33.046, 279 37 M 443.571 39.571 C 441.685 41.457, 441.619 42.219, 443.200 43.800 C 444.850 45.450, 447.503 45.304, 449.016 43.481 C 450.047 42.238, 449.950 41.603, 448.483 39.981 C 446.318 37.589, 445.613 37.530, 443.571 39.571 M 263.455 43.455 C 260.594 46.315, 260.421 47.728, 262.557 50.777 C 264.519 53.579, 269.967 53.799, 272.345 51.171 C 275.825 47.326, 273.201 41, 268.126 41 C 266.907 41, 264.805 42.105, 263.455 43.455 M 459.046 46.444 C 456.345 49.699, 460.815 53.614, 463.811 50.618 C 465.084 49.344, 465.215 48.563, 464.376 47.231 C 462.916 44.913, 460.601 44.571, 459.046 46.444 M 133.597 54.250 C 130.954 58.355, 97 137.934, 97 140.024 C 97 141.965, 97.496 142.060, 106.250 141.788 L 115.500 141.500 118 136.254 L 120.500 131.007 139.177 131.004 L 157.853 131 160.371 136.500 L 162.889 142 171.976 142 C 178.440 142, 181.205 141.630, 181.554 140.719 C 182.136 139.204, 145.363 53.852, 143.664 52.771 C 143.024 52.364, 140.823 52.024, 138.773 52.015 C 135.994 52.004, 134.678 52.572, 133.597 54.250 M 25.250 53.662 C 24.563 53.940, 24 54.787, 24 55.545 C 24 56.303, 32.301 75.953, 42.446 99.212 L 60.892 141.500 65.785 141.797 C 68.901 141.986, 71.064 141.622, 71.743 140.797 C 72.842 139.458, 107.817 59.949, 108.759 56.648 C 109.552 53.867, 107.288 53.032, 98.905 53.015 C 92.867 53.003, 90.978 53.367, 89.692 54.788 C 88.802 55.772, 83.289 67.809, 77.441 81.538 C 71.593 95.267, 66.696 106.618, 66.558 106.763 C 66.420 106.907, 61.448 95.657, 55.509 81.763 C 49.570 67.868, 43.826 55.712, 42.745 54.750 C 41.240 53.411, 39.103 53.019, 33.639 53.079 C 29.713 53.122, 25.938 53.385, 25.250 53.662 M 178.250 53.662 C 177.389 54.010, 177 56.786, 177 62.583 L 177 71 189.500 71 L 202 71 202 106.536 L 202 142.072 211.750 141.786 L 221.500 141.500 221.763 106.250 L 222.026 71 234.013 71 L 246 71 246 63.200 C 246 58.467, 245.528 54.928, 244.800 54.200 C 243.913 53.313, 235.235 53.021, 211.550 53.079 C 193.923 53.122, 178.938 53.385, 178.250 53.662 M 278.384 55.412 C 257.558 60.466, 248.152 82.200, 260.753 96.148 C 266.295 102.283, 274.707 105.966, 291.183 109.472 C 303.568 112.107, 307.333 117.017, 301.035 122.317 C 295.209 127.219, 283.329 127.003, 272.928 121.806 L 266.815 118.751 261.407 124.091 C 258.433 127.029, 256 130.195, 256 131.127 C 256 133.396, 261.337 137.785, 267.596 140.662 C 278.897 145.858, 298.219 145.977, 308.676 140.915 C 314.429 138.130, 320.534 131.788, 322.555 126.496 C 325.208 119.548, 324.258 109.244, 320.470 103.883 C 316.249 97.910, 307.856 93.594, 294.342 90.446 C 277.952 86.629, 273.517 83.560, 276.336 77.988 C 279.175 72.376, 294.458 71.543, 304.496 76.454 C 307.358 77.854, 310.345 79, 311.134 79 C 311.923 79, 314.985 76.553, 317.939 73.561 L 323.310 68.123 321.575 65.474 C 319.254 61.931, 307.138 56.334, 299 55.045 C 290.751 53.738, 284.848 53.843, 278.384 55.412 M 340.472 56.212 C 340.200 56.921, 340.095 76.850, 340.239 100.500 L 340.500 143.500 350 143.500 L 359.500 143.500 359.500 99.500 L 359.500 55.500 350.233 55.212 C 343.383 55, 340.837 55.260, 340.472 56.212 M 380.458 56.250 C 380.194 56.938, 380.095 76.850, 380.239 100.500 L 380.500 143.500 390 143.500 L 399.500 143.500 400 123.225 L 400.500 102.950 411 123.149 C 416.775 134.257, 422.288 143.829, 423.250 144.418 C 424.495 145.180, 425.505 145.180, 426.750 144.418 C 427.712 143.829, 433.225 134.280, 439 123.198 L 449.500 103.050 449.772 122.199 C 449.948 134.586, 450.444 141.830, 451.175 142.711 C 452.006 143.712, 454.584 143.997, 460.903 143.787 L 469.500 143.500 469.500 99.500 L 469.500 55.500 460.990 55.215 C 455.162 55.019, 451.985 55.334, 450.911 56.215 C 450.048 56.922, 443.994 68.863, 437.458 82.750 C 430.922 96.638, 425.325 108, 425.019 108 C 424.714 108, 419.313 97.138, 413.018 83.862 C 406.722 70.587, 400.735 58.662, 399.713 57.362 C 398.021 55.212, 397.096 55, 389.396 55 C 383.551 55, 380.789 55.386, 380.458 56.250 M 138 83.879 L 138 88.758 130.288 94.629 C 126.047 97.858, 122.122 100.813, 121.567 101.196 C 121.012 101.578, 120.839 102.172, 121.182 102.515 C 121.525 102.859, 123.749 102.148, 126.125 100.936 C 132.247 97.813, 135.594 96.994, 136.899 98.299 C 137.504 98.904, 138 101.807, 138 104.748 C 138 109.256, 137.595 110.444, 135.421 112.315 L 132.841 114.533 138.921 114.533 C 142.264 114.533, 145 114.366, 145 114.161 C 145 113.956, 143.853 112.886, 142.452 111.783 C 140.229 110.035, 139.941 109.135, 140.202 104.742 C 140.406 101.296, 141.044 99.364, 142.225 98.624 C 144.001 97.510, 144.757 97.700, 153.250 101.395 C 159.266 104.013, 157.609 101.636, 149.033 95.344 C 141.614 89.902, 141.064 89.248, 141.033 85.832 C 141.015 83.814, 140.727 81.452, 140.393 80.582 C 139.192 77.452, 138 79.094, 138 83.879 M 213.223 148.557 C 208.895 151.588, 211.076 158, 216.434 158 C 218.426 158, 222 154.468, 222 152.500 C 222 150.668, 218.480 147, 216.723 147 C 216.020 147, 214.445 147.701, 213.223 148.557 M 57.180 151.240 C 57.537 153.739, 60.831 154.892, 62.038 152.939 C 63.293 150.909, 61.978 149, 59.323 149 C 57.345 149, 56.924 149.440, 57.180 151.240 M 198.440 155.451 C 196.403 158.560, 197.366 161.803, 200.564 162.606 C 203.868 163.435, 205.799 162.536, 207.167 159.532 C 209.603 154.187, 201.692 150.488, 198.440 155.451 M 71.152 154.871 C 68.859 156.348, 70.233 159.467, 73.332 159.824 C 75.889 160.117, 76.117 159.889, 75.824 157.332 C 75.488 154.416, 73.491 153.364, 71.152 154.871 M 184.452 160.433 C 182.289 163.734, 183.972 167, 187.835 167 C 191.133 167, 193 165.374, 193 162.500 C 193 157.727, 187.152 156.313, 184.452 160.433 M 84.362 160.500 C 83.417 162.962, 84.776 165, 87.362 165 C 89.947 165, 91.306 162.962, 90.362 160.500 C 90.045 159.675, 88.695 159, 87.362 159 C 86.028 159, 84.678 159.675, 84.362 160.500 M 172.239 161.666 C 167.803 163.453, 169.057 170, 173.835 170 C 178.798 170, 180.689 165.838, 177.171 162.655 C 175.294 160.956, 174.431 160.783, 172.239 161.666 M 98.713 162.621 C 96.250 165.083, 99.550 169.595, 103.010 168.497 C 106.199 167.485, 105.386 162.603, 101.963 162.204 C 100.567 162.041, 99.104 162.229, 98.713 162.621 M 113.200 165.200 C 110.013 168.387, 113.963 173.161, 118 171 C 121.406 169.177, 119.927 164, 116 164 C 115.120 164, 113.860 164.540, 113.200 165.200 M 156.200 165.200 C 153.341 168.059, 155.648 172, 160.181 172 C 162.317 172, 163.108 171.417, 163.593 169.487 C 163.954 168.046, 163.697 166.340, 162.989 165.487 C 161.503 163.696, 157.858 163.542, 156.200 165.200 M 127.571 166.571 C 125.712 168.431, 125.696 168.564, 127.035 171.066 C 127.623 172.163, 129.121 173, 130.500 173 C 132.535 173, 135 170.610, 135 168.637 C 135 167.592, 131.793 165, 130.500 165 C 129.754 165, 128.436 165.707, 127.571 166.571 M 142.046 166.445 C 141.386 167.240, 140.994 168.927, 141.173 170.195 C 141.443 172.100, 142.107 172.500, 145 172.500 C 147.893 172.500, 148.557 172.100, 148.827 170.195 C 149.218 167.435, 147.424 165, 145 165 C 144.035 165, 142.705 165.650, 142.046 166.445" stroke="none" fill="#0270D7" fill-rule="evenodd"/><path d="M 54.499 182.002 C 53.485 183.643, 49 197.241, 49 198.675 C 49 200.792, 52.712 200.208, 53.290 198 C 53.641 196.657, 54.654 196, 56.371 196 C 57.906 196, 59.358 196.800, 60 198 C 61.319 200.465, 63.996 200.632, 64.012 198.250 C 64.018 197.287, 62.815 193.012, 61.339 188.750 C 59.353 183.018, 58.193 181, 56.886 181 C 55.914 181, 54.839 181.451, 54.499 182.002 M 65.058 182.750 C 65.091 183.713, 66.382 187.875, 67.928 192 C 70.021 197.584, 71.255 199.578, 72.761 199.805 C 74.491 200.067, 75.226 198.793, 77.839 191.003 C 80.311 183.632, 80.626 181.794, 79.494 181.359 C 77.310 180.521, 76.374 181.592, 75 186.500 C 74.299 189.003, 73.413 191.245, 73.031 191.481 C 72.649 191.717, 71.563 189.455, 70.617 186.455 C 69.308 182.303, 68.432 181, 66.949 181 C 65.737 181, 65.022 181.662, 65.058 182.750 M 83.452 182.264 C 83.154 183.041, 83.043 187.237, 83.205 191.588 C 83.471 198.735, 83.693 199.500, 85.500 199.500 C 87.352 199.500, 87.500 198.833, 87.500 190.514 C 87.500 182.744, 87.263 181.482, 85.747 181.190 C 84.783 181.004, 83.750 181.488, 83.452 182.264 M 93.192 189.596 C 91.470 194.378, 90.299 198.674, 90.589 199.145 C 91.574 200.737, 94.184 200.012, 94.710 198 C 95.077 196.597, 96.074 196, 98.049 196 C 99.987 196, 101.063 196.624, 101.500 198 C 102.294 200.500, 106.024 200.710, 105.942 198.250 C 105.909 197.287, 104.618 193.125, 103.072 189 C 101.016 183.515, 99.732 181.420, 98.292 181.202 C 96.648 180.952, 95.806 182.338, 93.192 189.596 M 106 183 C 106 184.467, 106.667 185, 108.500 185 C 110.947 185, 111 185.162, 111 192.573 C 111 199.247, 111.208 200.107, 112.750 199.813 C 114.191 199.538, 114.552 198.200, 114.794 192.239 C 115.076 185.298, 115.189 185, 117.544 185 C 119.333 185, 120 184.457, 120 183 C 120 181.190, 119.333 181, 113 181 C 106.667 181, 106 181.190, 106 183 M 122.443 182.288 C 122.150 183.052, 122.043 187.237, 122.205 191.588 L 122.500 199.500 128.500 199.500 C 133.167 199.500, 134.500 199.167, 134.500 198 C 134.500 196.989, 133.279 196.399, 130.750 196.190 C 127.812 195.946, 127 195.459, 127 193.940 C 127 192.574, 127.691 192, 129.333 192 C 130.617 192, 131.963 191.704, 132.325 191.342 C 133.352 190.315, 130.964 188, 128.878 188 C 125.188 188, 126.872 185.131, 130.750 184.810 C 133.279 184.601, 134.500 184.011, 134.500 183 C 134.500 180.908, 123.228 180.243, 122.443 182.288 M 154 190.500 L 154 200.100 159.750 199.800 C 164.061 199.575, 165.500 199.125, 165.500 198 C 165.500 196.989, 164.279 196.399, 161.750 196.190 C 158.812 195.946, 158 195.459, 158 193.940 C 158 192.574, 158.691 192, 160.333 192 C 161.617 192, 162.963 191.704, 163.325 191.342 C 164.352 190.315, 161.964 188, 159.878 188 C 156.188 188, 157.872 185.131, 161.750 184.810 C 164.279 184.601, 165.500 184.011, 165.500 183 C 165.500 181.875, 164.061 181.425, 159.750 181.200 L 154 180.900 154 190.500 M 169 190.500 L 169 200 173.545 200 C 177.096 200, 178.655 199.436, 180.666 197.425 C 182.936 195.155, 183.182 194.247, 182.749 189.739 C 182.133 183.330, 179.637 181, 173.389 181 L 169 181 169 190.500 M 186.701 181.632 C 185.561 182.773, 185.902 193.945, 187.150 196.316 C 188.738 199.333, 189.938 199.967, 194.095 199.985 C 199.635 200.008, 201 197.772, 201 188.671 C 201 181.724, 200.815 181, 199.044 181 C 197.309 181, 197.054 181.821, 196.794 188.250 C 196.508 195.302, 196.426 195.509, 193.795 195.812 C 191.096 196.123, 191.089 196.107, 190.795 188.823 C 190.567 183.183, 190.148 181.454, 188.951 181.226 C 188.099 181.064, 187.087 181.246, 186.701 181.632 M 207 183 C 205.485 184.515, 205 186.333, 205 190.500 C 205 194.667, 205.485 196.485, 207 198 C 209.366 200.366, 215.188 200.684, 216.964 198.544 C 218.782 196.353, 217.305 194.989, 213.860 195.678 C 210.299 196.390, 209.031 195.030, 209.031 190.500 C 209.031 185.970, 210.299 184.610, 213.860 185.322 C 217.305 186.011, 218.782 184.647, 216.964 182.456 C 215.188 180.316, 209.366 180.634, 207 183 M 225.571 181.886 C 224.147 184.189, 220 196.202, 220 198.023 C 220 200.589, 222.622 200.574, 224 198 C 224.642 196.800, 226.094 196, 227.629 196 C 229.346 196, 230.359 196.657, 230.710 198 C 231.363 200.497, 235.026 200.714, 234.937 198.250 C 234.903 197.287, 233.665 193.129, 232.187 189.009 C 229.641 181.912, 227.187 179.270, 225.571 181.886 M 235.187 182.750 C 235.370 183.713, 236.528 184.644, 237.760 184.820 C 239.850 185.118, 240 185.636, 240 192.570 C 240 199.333, 240.179 200, 242 200 C 243.822 200, 244 199.333, 244 192.500 C 244 185.167, 244.056 185, 246.500 185 C 248.333 185, 249 184.467, 249 183 C 249 181.189, 248.333 181, 241.927 181 C 235.730 181, 234.895 181.217, 235.187 182.750 M 252 190.500 L 252 200.100 257.750 199.800 C 262.061 199.575, 263.500 199.125, 263.500 198 C 263.500 196.989, 262.279 196.399, 259.750 196.190 C 256.812 195.946, 256 195.459, 256 193.940 C 256 192.451, 256.698 192, 259 192 C 261.022 192, 262 191.503, 262 190.475 C 262 189.581, 260.760 188.702, 259 188.350 C 254.708 187.492, 255.197 185.187, 259.750 184.810 C 262.279 184.601, 263.500 184.011, 263.500 183 C 263.500 181.875, 262.061 181.425, 257.750 181.200 L 252 180.900 252 190.500 M 284.405 183.105 C 283.037 184.617, 282.500 186.701, 282.500 190.500 C 282.500 194.299, 283.037 196.383, 284.405 197.895 C 287.419 201.225, 295 200.529, 295 196.923 C 295 195.398, 294.320 195.100, 291.250 195.280 L 287.500 195.500 287.193 190.113 L 286.886 184.726 290.943 185.375 C 294.493 185.943, 295 185.786, 295 184.119 C 295 180.475, 287.439 179.752, 284.405 183.105 M 299.405 183.105 C 298.037 184.617, 297.500 186.701, 297.500 190.500 C 297.500 197.245, 299.699 200, 305.082 200 C 310.056 200, 313 196.468, 313 190.500 C 313 184.532, 310.056 181, 305.082 181 C 302.517 181, 300.700 181.674, 299.405 183.105 M 316.424 182.338 C 316.141 183.075, 316.043 187.237, 316.205 191.588 C 316.471 198.735, 316.693 199.500, 318.500 199.500 C 320.148 199.500, 320.555 198.729, 320.814 195.119 C 321.115 190.921, 321.190 190.827, 322.621 192.869 C 324.713 195.857, 326.375 195.527, 328.255 191.750 L 329.872 188.500 329.936 194.250 C 329.992 199.312, 330.239 200, 332 200 C 333.860 200, 334 199.333, 334 190.500 C 334 181.017, 333.995 181, 331.484 181 C 329.593 181, 328.553 181.870, 327.299 184.500 C 326.381 186.425, 325.346 188, 325 188 C 324.654 188, 323.619 186.425, 322.701 184.500 C 320.980 180.889, 317.447 179.673, 316.424 182.338 M 338 190.500 C 338 199.333, 338.140 200, 340 200 C 341.741 200, 342.005 199.320, 342.040 194.750 C 342.080 189.527, 342.088 189.514, 343.572 192.250 C 345.470 195.749, 347.701 195.759, 349.271 192.275 C 350.474 189.608, 350.511 189.655, 351 194.516 C 351.372 198.207, 351.950 199.568, 353.250 199.815 C 354.819 200.112, 355 199.147, 355 190.504 C 355 181.109, 354.943 180.869, 352.777 181.180 C 351.432 181.374, 349.719 182.991, 348.441 185.276 L 346.327 189.052 344.512 185.026 C 343.140 181.983, 342.123 181, 340.348 181 C 338.049 181, 338 181.197, 338 190.500 M 359.701 181.632 C 358.561 182.773, 358.902 193.945, 360.150 196.316 C 361.738 199.333, 362.938 199.967, 367.095 199.985 C 372.635 200.008, 374 197.772, 374 188.671 C 374 181.724, 373.815 181, 372.044 181 C 370.309 181, 370.054 181.821, 369.794 188.250 C 369.508 195.302, 369.426 195.509, 366.795 195.812 C 364.096 196.123, 364.089 196.107, 363.795 188.823 C 363.567 183.183, 363.148 181.454, 361.951 181.226 C 361.099 181.064, 360.087 181.246, 359.701 181.632 M 378.424 182.338 C 378.141 183.075, 378.043 187.237, 378.205 191.588 C 378.471 198.735, 378.693 199.500, 380.500 199.500 C 382.119 199.500, 382.595 198.667, 383 195.122 L 383.500 190.744 386.851 195.426 C 392.016 202.642, 393.500 201.540, 393.500 190.486 C 393.500 182.167, 393.352 181.500, 391.500 181.500 C 389.870 181.500, 389.407 182.333, 389 186 L 388.500 190.500 385.202 185.750 C 381.929 181.036, 379.410 179.768, 378.424 182.338 M 397.452 182.264 C 397.154 183.041, 397.043 187.237, 397.205 191.588 C 397.471 198.735, 397.693 199.500, 399.500 199.500 C 401.352 199.500, 401.500 198.833, 401.500 190.514 C 401.500 182.744, 401.263 181.482, 399.747 181.190 C 398.783 181.004, 397.750 181.488, 397.452 182.264 M 408.400 181.765 C 404.590 184.309, 403.830 193.243, 407.073 197.365 C 410.271 201.431, 418 200.670, 418 196.288 C 418 195.318, 416.959 195.143, 414 195.616 L 410 196.256 410 190.500 L 410 184.744 414 185.384 C 418.181 186.053, 419.337 184.737, 416.800 182.200 C 415.481 180.881, 410.139 180.604, 408.400 181.765 M 424.870 183.750 C 422.431 189.956, 420 197.397, 420 198.657 C 420 200.775, 423.795 200.222, 424.500 198 C 425.290 195.510, 431 195.098, 431 197.531 C 431 199.244, 433.382 200.500, 434.877 199.576 C 435.459 199.216, 434.640 195.369, 432.836 189.987 C 430.427 182.805, 429.433 181, 427.886 181 C 426.703 181, 425.530 182.070, 424.870 183.750 M 435.527 181.956 C 434.580 183.489, 435.836 185, 438.059 185 C 439.808 185, 440 185.743, 440 192.500 C 440 199.333, 440.178 200, 442 200 C 443.821 200, 444 199.333, 444 192.566 C 444 185.200, 444.025 185.130, 446.750 184.816 C 448.387 184.628, 449.500 183.893, 449.500 183 C 449.500 181.846, 447.962 181.432, 442.836 181.206 C 438.962 181.036, 435.902 181.349, 435.527 181.956 M 452.424 182.338 C 452.141 183.075, 452.043 187.237, 452.205 191.588 L 452.500 199.500 458.250 199.800 C 463.478 200.073, 464 199.914, 464 198.050 C 464 196.325, 463.366 196, 460 196 C 456.667 196, 456 195.667, 456 194 C 456 192.434, 456.667 192, 459.073 192 C 461.460 192, 462.073 191.609, 461.815 190.250 C 461.615 189.195, 460.395 188.374, 458.741 188.184 C 454.574 187.703, 455.323 185.177, 459.742 184.810 C 462.357 184.593, 463.583 183.973, 463.815 182.750 C 464.099 181.252, 463.339 181, 458.542 181 C 454.783 181, 452.768 181.441, 452.424 182.338 M 173 190.500 C 173 195.776, 173.145 196.119, 175.250 195.820 C 177.241 195.537, 177.500 194.924, 177.500 190.500 C 177.500 186.076, 177.241 185.463, 175.250 185.180 C 173.145 184.881, 173 185.224, 173 190.500 M 302.429 186.325 C 302.120 187.130, 302.009 189.524, 302.183 191.645 C 302.459 195.006, 302.820 195.500, 305 195.500 C 307.333 195.500, 307.500 195.167, 307.500 190.500 C 307.500 186.073, 307.242 185.463, 305.246 185.180 C 303.949 184.996, 302.752 185.482, 302.429 186.325 M 55.732 189.915 C 55.371 191.298, 55.661 192, 56.594 192 C 58.189 192, 58.355 191.109, 57.123 189.165 C 56.480 188.151, 56.147 188.331, 55.732 189.915 M 97.697 189.393 C 97.288 190.434, 97.189 191.522, 97.476 191.810 C 98.389 192.722, 99.191 191.227, 98.809 189.328 C 98.459 187.588, 98.405 187.591, 97.697 189.393 M 226.710 190 C 226.383 191.250, 226.680 192, 227.500 192 C 228.320 192, 228.617 191.250, 228.290 190 C 228.002 188.900, 227.647 188, 227.500 188 C 227.353 188, 226.998 188.900, 226.710 190 M 426.732 189.915 C 426.371 191.298, 426.661 192, 427.594 192 C 429.189 192, 429.355 191.109, 428.123 189.165 C 427.480 188.151, 427.147 188.331, 426.732 189.915" stroke="none" fill="#0270D7" fill-rule="evenodd"/></svg>